<svg width="420" height="420" xmlns="http://www.w3.org/2000/svg" xmlns:svg="http://www.w3.org/2000/svg">
 <g class="layer">
  <title>Layer 1</title>
  <g id="svg_1">
   <g fill="#000000" id="svg_2" transform="matrix(0.0986986, 0, 0, -0.0995232, 0.195936, 0.00235775)">
    <path d="m2095.29,-26.37c-91,-47 -268,-155 -268,-163c0,-18 233,-349 240,-341c10,11 211,445 208,448c-2,1 -23,15 -47,30c-66,41 -94,46 -133,26z" id="svg_3"/>
    <path d="m2293.29,-189.37c-19,-40 -68,-147 -110,-237c-42,-90 -76,-170 -74,-176c6,-24 553,-813 559,-807c13,13 449,819 449,828c0,9 -770,464 -785,464c-3,0 -21,-33 -39,-72z" id="svg_4"/>
    <path d="m1047.29,-636.37l-715,-417l-3,-100l-3,-99l431,-525c237,-289 439,-533 448,-543c17,-16 38,27 422,848l405,865l22,-24l21,-25l12,30c10,24 10,33 -5,56l-18,26l-14,-26c-7,-15 -15,-27 -17,-27c-2,0 -61,85 -132,190c-71,104 -131,189 -134,189c-3,0 -327,-188 -720,-418z" id="svg_5"/>
    <path d="m2938.29,-1039.37l-234,-431l-19,23c-20,25 -20,25 -37,-7c-9,-19 -8,-28 5,-49l17,-26l15,27c7,15 17,23 22,19c5,-5 207,-299 450,-654c243,-355 447,-651 454,-658c10,-10 44,44 174,284l162,298l-2,580l-3,579l-375,220c-206,120 -379,221 -385,223c-5,2 -115,-191 -244,-428z" id="svg_6"/>
    <path d="m1668.29,-1524.37c-222,-472 -405,-860 -407,-862c-2,-3 -12,6 -21,18l-16,24l-14,-28c-15,-27 -15,-27 -33,-9c-10,11 -205,248 -434,527l-416,508l0,-913l0,-913l196,-113c108,-63 200,-110 204,-105c4,4 110,227 235,496c125,268 231,487 234,487c3,0 12,-10 20,-22l13,-22l15,28c19,35 -10,66 292,-304c133,-162 245,-296 249,-297c4,-2 27,34 51,80c24,45 212,391 417,768c206,377 374,691 374,698c0,11 -519,773 -544,799c-10,11 -89,-149 -415,-845z" id="svg_7"/>
    <path d="m2639.29,-1589.37c-16,-29 -199,-366 -407,-748c-208,-382 -384,-706 -393,-719l-15,-25l-18,23l-18,22l-16,-25l-17,-25l-256,314c-142,173 -260,314 -263,314c-3,1 -26,-43 -51,-96c-25,-54 -127,-273 -228,-486c-100,-214 -180,-391 -178,-393c10,-9 589,-344 596,-344c4,0 87,148 185,328c98,180 182,334 187,342c7,12 12,11 30,-5c22,-19 30,-16 44,20c5,14 -16,39 371,-435c191,-234 353,-431 359,-438c10,-10 74,24 322,168l309,180l193,353c106,193 198,361 204,371c10,19 11,19 29,-3l18,-22l13,20c7,12 16,21 19,21c4,0 55,-71 114,-157c60,-87 110,-160 111,-162c2,-2 17,2 34,9l30,12l0,416c0,228 -2,413 -4,411c-2,-2 -65,-116 -140,-253c-75,-137 -139,-252 -142,-255c-3,-3 -14,5 -23,18l-19,24l-14,-27l-15,-28l-45,63c-24,35 -230,335 -457,667c-227,331 -414,602 -416,602c-2,0 -17,-24 -33,-52z" id="svg_8"/>
    <path d="m3453.29,-3242.37c-91,-168 -166,-307 -166,-309c0,-2 123,68 273,155c149,88 271,164 269,170c-5,19 -193,289 -201,289c-5,0 -83,-137 -175,-305z" id="svg_9"/>
    <path d="m1637.29,-3429.37c-84,-156 -166,-306 -181,-333l-28,-50l339,-198c218,-128 350,-199 368,-199c20,-1 85,31 201,98c94,54 170,102 168,106c-4,15 -699,858 -706,858c-4,0 -77,-127 -161,-282z" id="svg_10"/>
   </g>
  </g>
 </g>

</svg>