<?xml version="1.0" standalone="no"?>
<!DOCTYPE svg PUBLIC "-//W3C//DTD SVG 20010904//EN"
 "http://www.w3.org/TR/2001/REC-SVG-20010904/DTD/svg10.dtd">
<svg version="1.0" xmlns="http://www.w3.org/2000/svg"
 width="1200.000000pt" height="1200.000000pt" viewBox="0 0 1200.000000 1200.000000"
 preserveAspectRatio="xMidYMid meet">

<g transform="translate(0.000000,1200.000000) scale(0.100000,-0.100000)"
fill="#000000" stroke="none">
<path d="M5958 9731 c-91 -47 -268 -155 -268 -163 0 -18 233 -349 240 -341 10
11 211 445 208 448 -2 1 -23 15 -47 30 -66 41 -94 46 -133 26z"/>
<path d="M6156 9568 c-19 -40 -68 -147 -110 -237 -42 -90 -76 -170 -74 -176 6
-24 553 -813 559 -807 13 13 449 819 449 828 0 9 -770 464 -785 464 -3 0 -21
-33 -39 -72z"/>
<path d="M4910 9121 l-715 -417 -3 -100 -3 -99 431 -525 c237 -289 439 -533
448 -543 17 -16 38 27 422 848 l405 865 22 -24 21 -25 12 30 c10 24 10 33 -5
56 l-18 26 -14 -26 c-7 -15 -15 -27 -17 -27 -2 0 -61 85 -132 190 -71 104
-131 189 -134 189 -3 0 -327 -188 -720 -418z"/>
<path d="M6801 8718 l-234 -431 -19 23 c-20 25 -20 25 -37 -7 -9 -19 -8 -28 5
-49 l17 -26 15 27 c7 15 17 23 22 19 5 -5 207 -299 450 -654 243 -355 447
-651 454 -658 10 -10 44 44 174 284 l162 298 -2 580 -3 579 -375 220 c-206
120 -379 221 -385 223 -5 2 -115 -191 -244 -428z"/>
<path d="M5531 8233 c-222 -472 -405 -860 -407 -862 -2 -3 -12 6 -21 18 l-16
24 -14 -28 c-15 -27 -15 -27 -33 -9 -10 11 -205 248 -434 527 l-416 508 0
-913 0 -913 196 -113 c108 -63 200 -110 204 -105 4 4 110 227 235 496 125 268
231 487 234 487 3 0 12 -10 20 -22 l13 -22 15 28 c19 35 -10 66 292 -304 133
-162 245 -296 249 -297 4 -2 27 34 51 80 24 45 212 391 417 768 206 377 374
691 374 698 0 11 -519 773 -544 799 -10 11 -89 -149 -415 -845z"/>
<path d="M6502 8168 c-16 -29 -199 -366 -407 -748 -208 -382 -384 -706 -393
-719 l-15 -25 -18 23 -18 22 -16 -25 -17 -25 -256 314 c-142 173 -260 314
-263 314 -3 1 -26 -43 -51 -96 -25 -54 -127 -273 -228 -486 -100 -214 -180
-391 -178 -393 10 -9 589 -344 596 -344 4 0 87 148 185 328 98 180 182 334
187 342 7 12 12 11 30 -5 22 -19 30 -16 44 20 5 14 -16 39 371 -435 191 -234
353 -431 359 -438 10 -10 74 24 322 168 l309 180 193 353 c106 193 198 361
204 371 10 19 11 19 29 -3 l18 -22 13 20 c7 12 16 21 19 21 4 0 55 -71 114
-157 60 -87 110 -160 111 -162 2 -2 17 2 34 9 l30 12 0 416 c0 228 -2 413 -4
411 -2 -2 -65 -116 -140 -253 -75 -137 -139 -252 -142 -255 -3 -3 -14 5 -23
18 l-19 24 -14 -27 -15 -28 -45 63 c-24 35 -230 335 -457 667 -227 331 -414
602 -416 602 -2 0 -17 -24 -33 -52z"/>
<path d="M7316 6515 c-91 -168 -166 -307 -166 -309 0 -2 123 68 273 155 149
88 271 164 269 170 -5 19 -193 289 -201 289 -5 0 -83 -137 -175 -305z"/>
<path d="M5500 6328 c-84 -156 -166 -306 -181 -333 l-28 -50 339 -198 c218
-128 350 -199 368 -199 20 -1 85 31 201 98 94 54 170 102 168 106 -4 15 -699
858 -706 858 -4 0 -77 -127 -161 -282z"/>
<path d="M4180 4715 l0 -65 95 0 95 0 0 -320 0 -320 -95 0 -95 0 0 -65 0 -65
265 0 265 0 0 65 0 65 -90 0 -90 0 0 385 0 385 -175 0 -175 0 0 -65z"/>
<path d="M8490 4619 l0 -160 -32 24 c-43 32 -68 39 -134 38 -92 -1 -163 -51
-205 -146 -18 -38 -24 -74 -27 -151 -5 -117 12 -192 59 -260 66 -96 209 -123
303 -56 l45 31 3 -27 c3 -26 5 -27 76 -30 l72 -3 0 451 0 450 -80 0 -80 0 0
-161z m-29 -258 l29 -29 0 -134 c0 -122 -2 -136 -21 -157 -62 -66 -162 -50
-200 32 -21 48 -26 158 -8 221 6 22 24 52 39 68 24 23 37 28 80 28 44 0 56 -4
81 -29z"/>
<path d="M3340 4305 l0 -427 208 4 c190 3 211 5 257 26 61 28 91 55 117 105
57 111 18 253 -81 294 l-35 15 35 20 c50 28 79 77 86 141 10 100 -34 175 -129
218 -49 22 -68 24 -255 27 l-203 3 0 -426z m360 282 c68 -23 88 -122 36 -175
-24 -25 -124 -46 -193 -40 l-38 3 -3 113 -3 112 83 -1 c46 0 99 -5 118 -12z
m37 -353 c40 -30 57 -89 41 -139 -22 -64 -53 -79 -173 -83 l-105 -4 0 127 0
127 105 -4 c86 -3 109 -7 132 -24z"/>
<path d="M5158 4518 c-62 -8 -85 -17 -136 -55 -136 -102 -149 -385 -23 -511
62 -61 105 -77 211 -77 106 0 149 16 209 76 115 115 119 354 7 486 -53 63
-160 95 -268 81z m131 -153 c39 -33 54 -83 54 -171 -1 -135 -54 -202 -152
-191 -34 4 -52 13 -72 35 -66 73 -62 251 6 319 29 29 40 33 83 33 39 0 57 -6
81 -25z"/>
<path d="M5918 4519 c-130 -20 -208 -141 -208 -324 0 -138 43 -234 132 -292
36 -24 51 -28 118 -28 67 0 82 4 118 28 l42 27 0 -30 c0 -48 -26 -98 -62 -120
-51 -32 -143 -24 -201 17 l-44 30 -33 -48 c-38 -56 -35 -64 34 -103 90 -52
218 -58 314 -16 57 26 97 62 125 115 21 38 22 53 25 388 l3 347 -76 0 c-73 0
-75 -1 -75 -25 l0 -25 -38 25 c-46 30 -112 43 -174 34z m171 -155 l31 -26 0
-137 c0 -156 -6 -173 -69 -192 -108 -32 -181 43 -181 186 0 73 18 125 55 162
29 29 40 33 83 33 40 0 57 -6 81 -26z"/>
<path d="M6708 4519 c-130 -20 -208 -141 -208 -324 0 -138 43 -234 132 -292
36 -24 51 -28 118 -28 67 0 82 4 118 28 l42 27 0 -30 c0 -48 -26 -98 -62 -120
-51 -32 -143 -24 -201 17 l-44 30 -33 -48 c-38 -56 -35 -64 34 -103 90 -52
218 -58 314 -16 57 26 97 62 125 115 21 38 22 53 25 388 l3 347 -76 0 c-73 0
-75 -1 -75 -25 l0 -25 -38 25 c-46 30 -112 43 -174 34z m171 -155 l31 -26 0
-137 c0 -156 -6 -173 -69 -192 -108 -32 -181 43 -181 186 0 73 18 125 55 162
29 29 40 33 83 33 40 0 57 -6 81 -26z"/>
<path d="M7545 4519 c-97 -12 -181 -74 -225 -165 -32 -66 -40 -209 -16 -282
23 -67 84 -135 154 -169 50 -25 68 -28 152 -28 107 0 157 17 224 75 l37 33
-42 43 -42 43 -28 -24 c-65 -54 -179 -60 -242 -12 -34 25 -73 90 -63 105 2 4
99 7 215 7 l211 0 0 57 c0 218 -132 343 -335 317z m115 -144 c32 -16 60 -61
60 -95 0 -19 -6 -20 -130 -20 -143 0 -145 1 -115 60 34 66 116 90 185 55z"/>
</g>
</svg>