<svg width="540" height="620" xmlns="http://www.w3.org/2000/svg">
 <g>
  <title>Layer 1</title>
  <g id="svg_1">
   <g id="svg_2" transform="translate(0 1200) scale(0.1 -0.1)" fill="#000000">
    <path id="svg_3" d="m2663.00005,11943.67847c-91,-47 -268,-155 -268,-163c0,-18 233,-349 240,-341c10,11 211,445 208,448c-2,1 -23,15 -47,30c-66,41 -94,46 -133,26z"/>
    <path id="svg_4" d="m2861.00005,11780.67847c-19,-40 -68,-147 -110,-237c-42,-90 -76,-170 -74,-176c6,-24 553,-813 559,-807c13,13 449,819 449,828c0,9 -770,464 -785,464c-3,0 -21,-33 -39,-72z"/>
    <path id="svg_5" d="m1615.00005,11333.67847l-715,-417l-3,-100l-3,-99l431,-525c237,-289 439,-533 448,-543c17,-16 38,27 422,848l405,865l22,-24l21,-25l12,30c10,24 10,33 -5,56l-18,26l-14,-26c-7,-15 -15,-27 -17,-27c-2,0 -61,85 -132,190c-71,104 -131,189 -134,189c-3,0 -327,-188 -720,-418z"/>
    <path id="svg_6" d="m3506.00005,10930.67847l-234,-431l-19,23c-20,25 -20,25 -37,-7c-9,-19 -8,-28 5,-49l17,-26l15,27c7,15 17,23 22,19c5,-5 207,-299 450,-654c243,-355 447,-651 454,-658c10,-10 44,44 174,284l162,298l-2,580l-3,579l-375,220c-206,120 -379,221 -385,223c-5,2 -115,-191 -244,-428z"/>
    <path id="svg_7" d="m2236.00005,10445.67847c-222,-472 -405,-860 -407,-862c-2,-3 -12,6 -21,18l-16,24l-14,-28c-15,-27 -15,-27 -33,-9c-10,11 -205,248 -434,527l-416,508l0,-913l0,-913l196,-113c108,-63 200,-110 204,-105c4,4 110,227 235,496c125,268 231,487 234,487c3,0 12,-10 20,-22l13,-22l15,28c19,35 -10,66 292,-304c133,-162 245,-296 249,-297c4,-2 27,34 51,80c24,45 212,391 417,768c206,377 374,691 374,698c0,11 -519,773 -544,799c-10,11 -89,-149 -415,-845z"/>
    <path id="svg_8" d="m3207.00005,10380.67847c-16,-29 -199,-366 -407,-748c-208,-382 -384,-706 -393,-719l-15,-25l-18,23l-18,22l-16,-25l-17,-25l-256,314c-142,173 -260,314 -263,314c-3,1 -26,-43 -51,-96c-25,-54 -127,-273 -228,-486c-100,-214 -180,-391 -178,-393c10,-9 589,-344 596,-344c4,0 87,148 185,328c98,180 182,334 187,342c7,12 12,11 30,-5c22,-19 30,-16 44,20c5,14 -16,39 371,-435c191,-234 353,-431 359,-438c10,-10 74,24 322,168l309,180l193,353c106,193 198,361 204,371c10,19 11,19 29,-3l18,-22l13,20c7,12 16,21 19,21c4,0 55,-71 114,-157c60,-87 110,-160 111,-162c2,-2 17,2 34,9l30,12l0,416c0,228 -2,413 -4,411c-2,-2 -65,-116 -140,-253c-75,-137 -139,-252 -142,-255c-3,-3 -14,5 -23,18l-19,24l-14,-27l-15,-28l-45,63c-24,35 -230,335 -457,667c-227,331 -414,602 -416,602c-2,0 -17,-24 -33,-52z"/>
    <path id="svg_9" d="m4021.00005,8727.67847c-91,-168 -166,-307 -166,-309c0,-2 123,68 273,155c149,88 271,164 269,170c-5,19 -193,289 -201,289c-5,0 -83,-137 -175,-305z"/>
    <path id="svg_10" d="m2205.00005,8540.67847c-84,-156 -166,-306 -181,-333l-28,-50l339,-198c218,-128 350,-199 368,-199c20,-1 85,31 201,98c94,54 170,102 168,106c-4,15 -699,858 -706,858c-4,0 -77,-127 -161,-282z"/>
    <path id="svg_11" d="m885.00005,6927.67847l0,-65l95,0l95,0l0,-320l0,-320l-95,0l-95,0l0,-65l0,-65l265,0l265,0l0,65l0,65l-90,0l-90,0l0,385l0,385l-175,0l-175,0l0,-65z"/>
    <path id="svg_12" d="m5195.00005,6831.67847l0,-160l-32,24c-43,32 -68,39 -134,38c-92,-1 -163,-51 -205,-146c-18,-38 -24,-74 -27,-151c-5,-117 12,-192 59,-260c66,-96 209,-123 303,-56l45,31l3,-27c3,-26 5,-27 76,-30l72,-3l0,451l0,450l-80,0l-80,0l0,-161zm-29,-258l29,-29l0,-134c0,-122 -2,-136 -21,-157c-62,-66 -162,-50 -200,32c-21,48 -26,158 -8,221c6,22 24,52 39,68c24,23 37,28 80,28c44,0 56,-4 81,-29z"/>
    <path id="svg_13" d="m45.00005,6517.67847l0,-427l208,4c190,3 211,5 257,26c61,28 91,55 117,105c57,111 18,253 -81,294l-35,15l35,20c50,28 79,77 86,141c10,100 -34,175 -129,218c-49,22 -68,24 -255,27l-203,3l0,-426zm360,282c68,-23 88,-122 36,-175c-24,-25 -124,-46 -193,-40l-38,3l-3,113l-3,112l83,-1c46,0 99,-5 118,-12zm37,-353c40,-30 57,-89 41,-139c-22,-64 -53,-79 -173,-83l-105,-4l0,127l0,127l105,-4c86,-3 109,-7 132,-24z"/>
    <path id="svg_14" d="m1863.00005,6730.67847c-62,-8 -85,-17 -136,-55c-136,-102 -149,-385 -23,-511c62,-61 105,-77 211,-77c106,0 149,16 209,76c115,115 119,354 7,486c-53,63 -160,95 -268,81zm131,-153c39,-33 54,-83 54,-171c-1,-135 -54,-202 -152,-191c-34,4 -52,13 -72,35c-66,73 -62,251 6,319c29,29 40,33 83,33c39,0 57,-6 81,-25z"/>
    <path id="svg_15" d="m2623.00005,6731.67847c-130,-20 -208,-141 -208,-324c0,-138 43,-234 132,-292c36,-24 51,-28 118,-28c67,0 82,4 118,28l42,27l0,-30c0,-48 -26,-98 -62,-120c-51,-32 -143,-24 -201,17l-44,30l-33,-48c-38,-56 -35,-64 34,-103c90,-52 218,-58 314,-16c57,26 97,62 125,115c21,38 22,53 25,388l3,347l-76,0c-73,0 -75,-1 -75,-25l0,-25l-38,25c-46,30 -112,43 -174,34zm171,-155l31,-26l0,-137c0,-156 -6,-173 -69,-192c-108,-32 -181,43 -181,186c0,73 18,125 55,162c29,29 40,33 83,33c40,0 57,-6 81,-26z"/>
    <path id="svg_16" d="m3413.00005,6731.67847c-130,-20 -208,-141 -208,-324c0,-138 43,-234 132,-292c36,-24 51,-28 118,-28c67,0 82,4 118,28l42,27l0,-30c0,-48 -26,-98 -62,-120c-51,-32 -143,-24 -201,17l-44,30l-33,-48c-38,-56 -35,-64 34,-103c90,-52 218,-58 314,-16c57,26 97,62 125,115c21,38 22,53 25,388l3,347l-76,0c-73,0 -75,-1 -75,-25l0,-25l-38,25c-46,30 -112,43 -174,34zm171,-155l31,-26l0,-137c0,-156 -6,-173 -69,-192c-108,-32 -181,43 -181,186c0,73 18,125 55,162c29,29 40,33 83,33c40,0 57,-6 81,-26z"/>
    <path id="svg_17" d="m4250.00005,6731.67847c-97,-12 -181,-74 -225,-165c-32,-66 -40,-209 -16,-282c23,-67 84,-135 154,-169c50,-25 68,-28 152,-28c107,0 157,17 224,75l37,33l-42,43l-42,43l-28,-24c-65,-54 -179,-60 -242,-12c-34,25 -73,90 -63,105c2,4 99,7 215,7l211,0l0,57c0,218 -132,343 -335,317zm115,-144c32,-16 60,-61 60,-95c0,-19 -6,-20 -130,-20c-143,0 -145,1 -115,60c34,66 116,90 185,55z"/>
   </g>
  </g>
 </g>

</svg>